<?xml version="1.0" standalone="no"?>
<!DOCTYPE svg PUBLIC "-//W3C//DTD SVG 20010904//EN"
 "http://www.w3.org/TR/2001/REC-SVG-20010904/DTD/svg10.dtd">
<svg version="1.0" xmlns="http://www.w3.org/2000/svg"
 width="1080.000000pt" height="665.000000pt" viewBox="0 0 1080.000000 665.000000"
 preserveAspectRatio="xMidYMid meet">

<g transform="translate(0.000000,665.000000) scale(0.100000,-0.100000)"
fill="#000000" stroke="none">
<path d="M2417 6222 c-16 -3 -17 -202 -17 -2993 l0 -2989 2988 -2 c1643 -2
2993 -1 3000 1 18 5 18 5981 0 5981 -397 2 -5960 4 -5971 2z m921 -525 l2
-407 -407 2 -408 3 -3 395 c-1 217 0 401 3 408 3 10 90 12 407 10 l403 -3 3
-408z m240 351 l3 -58 54 0 54 0 3 58 3 57 55 0 55 0 3 -57 3 -58 59 0 60 0 0
49 c0 59 14 73 72 69 l43 -3 3 -57 3 -58 54 0 55 0 0 55 c0 68 -5 67 200 63
l155 -3 3 -57 3 -58 59 0 59 0 3 58 3 57 50 0 50 0 3 -57 3 -58 -56 0 -55 0 0
-115 0 -115 -60 0 -60 0 0 115 0 116 -117 -3 -118 -3 -3 -52 -3 -53 -172 -2
-172 -3 -3 -57 -3 -57 -57 -3 -57 -3 -3 -117 -3 -117 58 -3 58 -3 3 -52 3 -53
59 0 60 0 2 173 3 172 170 0 170 0 0 -55 0 -55 -55 -5 -55 -5 -3 -57 -3 -57
58 -3 58 -3 3 -52 3 -53 59 0 59 0 3 113 3 112 58 3 57 3 0 -115 0 -115 53 -3
52 -3 5 -55 5 -55 58 -3 58 -3 -3 113 -3 113 -58 3 -58 3 3 57 3 57 55 5 55 5
5 115 5 115 55 0 55 0 3 -292 2 -293 60 0 60 0 0 398 c0 218 4 403 9 410 5 9
24 12 52 10 l44 -3 5 -110 5 -110 57 -3 57 -3 3 53 3 53 117 3 117 3 3 57 3
57 44 3 c53 4 61 -5 61 -70 l0 -48 60 0 59 0 3 58 3 57 55 0 55 0 3 -57 3 -58
114 0 115 0 0 55 c0 66 2 67 140 63 l95 -3 3 -57 3 -58 59 0 59 0 3 58 c3 57
3 57 37 60 19 2 44 1 57 -2 22 -6 24 -12 24 -61 l0 -54 113 -3 112 -3 3 -52 3
-53 59 0 59 0 3 53 3 52 112 3 112 3 3 57 c3 57 3 57 37 60 19 2 45 1 58 -3
l23 -6 -2 -167 -3 -167 -55 -5 -55 -5 -5 -55 -5 -55 -50 0 -50 0 -5 115 -5
115 -57 3 -57 3 -3 -58 -3 -58 -57 -3 -57 -3 -3 -57 -3 -57 -55 -5 -55 -5 -3
-112 -3 -112 58 -3 58 -3 3 -57 3 -58 59 0 59 0 3 113 3 112 55 0 55 0 3 -112
3 -113 54 0 54 0 3 58 3 57 55 0 55 0 0 -55 0 -55 -57 -3 -58 -3 0 -119 0
-120 60 0 59 0 3 58 3 57 170 0 170 0 3 -57 3 -57 57 -3 57 -3 3 -52 3 -52
-113 -3 -113 -3 -5 -115 -5 -115 -55 -5 -55 -5 -3 -57 -3 -57 58 -3 58 -3 5
-110 5 -110 50 -5 50 -5 3 -57 3 -58 120 0 120 0 -3 58 -3 57 -58 3 -58 3 3
57 3 57 55 5 55 5 0 50 0 50 -57 3 -57 3 -3 57 -3 57 -58 3 -58 3 3 57 3 57
117 3 117 3 3 57 3 57 55 5 55 5 0 50 0 50 -57 3 -58 3 0 60 0 59 173 -2 172
-3 3 -112 3 -112 -58 -3 -58 -3 -3 -117 -3 -117 58 -3 58 -3 3 -112 3 -112
-58 -3 -58 -3 -3 -117 -3 -117 58 -3 58 -3 0 -55 0 -55 -57 -3 -58 -3 -1 38
c-1 21 0 48 1 61 1 22 0 22 -114 22 l-115 0 -3 -57 -3 -58 -115 -5 -115 -5 -3
-57 -3 -57 58 -3 58 -3 0 -110 0 -110 -112 -3 -113 -3 0 61 0 60 -120 0 -120
0 0 55 0 54 58 3 57 3 0 55 0 55 -57 3 -58 3 0 59 0 60 -60 0 -61 0 3 118 3
117 55 0 55 0 3 -118 3 -118 57 3 57 3 0 170 0 170 -117 3 -118 3 0 59 0 60
-55 0 -55 0 0 -60 0 -59 -57 -3 -58 -3 -3 -112 -3 -112 58 -3 58 -3 5 -115 5
-115 50 -5 50 -5 0 -55 0 -55 -173 -3 -172 -2 2 -173 3 -172 55 -5 55 -5 3
-57 3 -58 60 0 60 0 -3 -52 -3 -53 -57 -3 -57 -3 -3 -57 -3 -57 -117 -3 -117
-3 -3 113 -3 113 -52 3 -53 3 0 -55 0 -56 -60 0 -60 0 0 -60 0 -59 58 -3 57
-3 3 -57 3 -58 54 0 55 0 0 -60 0 -59 58 -3 57 -3 3 -52 3 -52 57 -3 57 -3 0
-55 0 -55 -58 -3 -58 -3 3 -57 3 -57 55 -5 55 -5 3 -172 2 -173 60 0 59 0 3
113 3 112 50 0 50 0 5 -50 5 -50 55 0 55 0 3 173 2 172 -59 0 -60 0 -3 58 -3
57 -50 5 -50 5 0 110 0 110 50 5 50 5 3 172 2 172 -52 3 -53 3 0 55 0 55 53 3
52 3 0 59 0 59 -52 3 -53 3 0 55 0 55 50 0 50 0 3 -57 3 -57 57 -3 57 -3 0
-55 0 -55 -57 -3 -58 -3 0 -60 0 -60 118 3 117 3 3 58 3 58 112 -3 112 -3 3
-58 3 -58 57 3 57 3 3 57 3 57 57 3 57 3 3 58 3 58 57 -3 57 -3 3 -57 3 -58
54 0 55 0 0 175 0 176 58 -3 57 -3 0 -170 0 -170 -57 -3 -58 -3 0 -59 0 -59
58 -3 57 -3 0 -110 0 -110 -55 -5 -55 -5 0 -55 0 -55 55 -5 55 -5 0 -230 0
-230 -55 0 -55 0 -5 55 -5 55 -50 5 -50 5 -5 55 -5 55 -57 3 -58 3 0 -180 0
-181 173 -2 172 -3 0 -50 0 -50 -172 -3 -172 -2 -3 -118 -3 -117 -115 0 -115
0 -5 55 -5 55 -50 5 -50 5 -3 58 -3 57 -119 0 -120 0 0 -60 0 -59 58 -3 57 -3
0 -55 0 -55 -57 -3 -57 -3 -3 -57 -3 -57 -55 -5 -55 -5 0 -55 0 -55 55 -5 55
-5 5 -110 5 -110 58 -3 57 -3 0 176 0 175 173 -2 172 -3 0 -55 0 -55 -57 -3
-57 -3 -3 -52 -3 -52 -52 -3 -52 -3 -3 -57 -3 -57 -57 -3 -58 -3 0 -59 0 -60
175 0 175 0 0 60 0 61 58 -3 57 -3 0 -55 0 -55 -58 -3 -58 -3 3 -57 3 -57 58
-3 58 -3 -3 -52 -3 -52 -57 -3 -58 -3 0 -59 0 -60 60 0 60 0 0 -120 0 -120
-61 0 -60 0 3 -52 3 -53 115 0 115 0 3 52 3 52 52 3 52 3 0 55 0 55 -50 5 -50
5 -3 117 -3 118 116 0 115 0 -2 -233 -3 -232 -57 -3 -58 -3 0 -59 0 -59 58 -3
57 -3 0 -230 0 -230 -230 0 -230 0 -3 57 -3 57 58 3 58 3 0 50 0 50 -57 3 -58
3 0 59 0 60 -60 0 -60 0 0 -170 0 -170 -24 -6 c-13 -3 -37 -4 -52 -2 l-29 3
-5 170 -5 170 -117 3 -118 3 0 -55 c0 -61 6 -66 76 -66 l44 0 0 -110 c0 -129
8 -123 -140 -118 l-95 3 -3 58 -3 57 -54 0 -55 0 0 -55 c0 -49 -2 -55 -24 -61
-13 -3 -38 -4 -57 -2 -34 3 -34 3 -37 61 l-3 57 -59 0 -59 0 -3 -57 -3 -58
-55 0 -55 0 -3 57 -3 58 -54 0 -55 0 0 -55 c0 -49 -2 -55 -24 -61 -13 -3 -38
-4 -57 -2 -34 3 -34 3 -37 61 l-3 57 61 0 60 0 0 55 0 54 -57 3 -58 3 -3 58
-3 57 -119 0 -119 0 -3 -57 -3 -58 -57 -3 -57 -3 -3 -112 -3 -112 -170 0 -170
0 -3 58 -3 57 -59 0 -59 0 -3 -57 c-3 -56 -4 -58 -32 -61 -15 -2 -39 -1 -52 2
-22 6 -24 12 -24 61 l0 55 56 0 55 0 -3 53 -3 52 -232 3 -233 2 0 -55 0 -55
60 0 61 0 -3 -57 -3 -58 -55 0 -55 0 -3 58 -3 57 -114 0 -115 0 0 -55 c0 -68
4 -67 -195 -63 l-150 3 -3 58 -3 57 -59 0 -59 0 -3 -57 -3 -58 -115 0 -115 0
-3 58 -3 57 -59 0 -59 0 -3 -57 -3 -58 -35 -2 c-64 -3 -70 3 -70 63 l0 54 -60
0 -59 0 -3 -57 -3 -58 -150 -3 c-199 -4 -195 -5 -195 63 l0 54 53 3 52 3 3 52
3 52 -113 3 -113 3 -3 177 -2 177 57 3 58 3 3 112 3 112 -58 3 -58 3 -3 57 -3
57 -117 3 -117 3 -3 57 -3 57 58 3 58 3 3 52 3 52 -113 3 -113 3 0 55 0 55
110 5 110 5 3 57 3 57 -58 3 -58 3 -3 57 -3 57 -52 3 -52 3 -3 173 -2 173 -58
-3 -57 -3 -3 -58 -3 -58 -117 3 -117 3 -3 58 -3 58 -52 -3 -52 -3 -3 -58 -3
-58 -57 3 -57 3 0 175 0 175 57 3 58 3 2 172 3 172 53 3 52 3 0 59 0 59 -112
3 -113 3 0 110 0 110 58 3 58 3 -3 57 -3 57 -55 5 -55 5 0 55 0 55 173 3 172
2 0 -60 0 -60 60 0 60 0 2 173 3 172 57 3 57 3 3 -58 3 -58 113 -3 112 -3 0
60 0 60 -57 3 -58 3 -3 57 -3 57 -112 3 -112 3 0 55 0 55 55 5 55 5 3 113 3
113 -58 -3 -58 -3 -3 -57 -3 -57 -57 -3 -57 -3 -3 -112 -3 -113 -108 0 c-122
0 -121 -1 -121 75 l0 44 -57 3 -58 3 0 50 0 50 113 3 113 3 -3 57 -3 57 -50 5
-50 5 0 55 0 55 53 3 52 3 0 120 0 119 -55 0 -55 0 0 55 0 54 -57 3 -58 3 0
55 0 55 58 3 57 3 0 119 0 120 -61 0 -60 0 3 53 3 52 55 0 55 0 3 -52 3 -53
54 0 54 0 3 113 3 112 175 0 175 0 5 -110 5 -110 113 -3 112 -3 0 56 0 55 -60
0 -61 0 3 58 3 57 55 0 55 0 3 -57 3 -58 59 0 60 0 2 233 3 232 113 3 113 3
-3 57 -3 57 -52 3 -52 3 -3 57 -3 57 -55 5 -55 5 -3 160 c-1 87 0 165 3 173 3
9 20 12 57 10 l53 -3 3 -57z m4697 -348 l0 -405 -407 -3 -408 -2 0 403 c0 222
3 407 7 410 4 4 187 6 407 5 l401 -3 0 -405z m-5407 -2123 l3 -57 -173 2 -173
3 -3 44 c-5 74 -12 72 175 69 l168 -3 3 -58z m4347 -817 l0 -55 -50 0 -50 0
-3 44 c-5 66 1 73 55 69 l48 -3 0 -55z m1060 -470 l0 -55 -57 -3 -58 -3 0 -59
0 -59 58 -3 57 -3 0 -55 0 -55 -55 0 -55 0 -3 58 -3 57 -54 0 -54 0 -3 -57 -3
-58 -55 0 -55 0 0 55 0 55 58 3 57 3 0 59 0 60 55 0 55 0 0 60 0 61 58 -3 57
-3 0 -55z m-5523 -352 l3 -53 57 -3 57 -3 3 -57 3 -57 58 -3 58 -3 -3 -57 -3
-57 -115 -5 -115 -5 0 -55 0 -55 118 -3 118 -3 -3 -52 -3 -52 -57 -3 -58 -3 0
-60 0 -59 -172 2 -173 3 -3 57 -3 57 58 3 58 3 3 112 3 112 -58 3 -58 3 0 55
0 55 58 3 57 3 0 59 0 59 -57 3 -58 3 -3 53 -3 52 115 0 115 0 3 -52z m5523
-118 l0 -55 -112 -3 -113 -3 0 61 0 61 113 -3 112 -3 0 -55z m-117 -237 c3
-48 1 -53 -21 -58 -14 -4 -38 -5 -53 -3 -28 3 -29 5 -32 61 l-3 58 53 -3 53
-3 3 -52z m-4820 -820 l-3 -408 -405 0 -405 0 -3 395 c-1 217 0 401 3 407 3
10 94 13 410 13 l405 0 -2 -407z"/>
<path d="M2645 5978 c-3 -8 -4 -137 -3 -288 l3 -275 288 -3 287 -2 -2 287 -3
288 -283 3 c-222 2 -284 0 -287 -10z m463 -281 l2 -177 -177 2 -178 3 -3 165
c-1 90 0 170 3 177 3 11 42 13 177 11 l173 -3 3 -178z"/>
<path d="M5580 5936 l0 -56 -120 0 -120 0 0 -120 0 -120 60 0 59 0 3 58 3 57
58 3 57 3 0 -60 0 -60 53 -3 52 -3 3 -57 3 -58 179 0 179 0 3 58 3 57 50 5 50
5 5 55 5 55 58 3 57 3 0 59 0 60 60 0 60 0 0 55 0 56 -57 -3 -58 -3 -3 -52 -3
-52 -112 -3 -112 -3 -3 -57 -3 -57 -117 -3 -117 -3 -3 -57 -3 -58 -59 0 -59 0
-3 58 -3 57 -52 3 -53 3 0 59 0 59 53 3 52 3 0 50 0 50 -52 3 -53 3 0 -55z"/>
<path d="M6520 5875 l0 -114 -57 -3 -58 -3 -3 -57 -3 -57 -57 -3 -57 -3 -3
-57 -3 -58 60 0 60 0 3 -112 3 -113 58 -3 57 -3 0 -59 0 -60 -120 0 -119 0 -3
118 -3 117 -55 0 -55 0 -5 -55 -5 -55 -52 -3 -52 -3 -3 58 -3 58 -55 0 -55 0
-5 -58 c-3 -31 -8 -57 -12 -57 -5 0 -30 0 -58 0 l-49 0 -3 58 -3 57 -55 0 -55
0 0 -115 0 -115 118 -3 117 -3 0 -114 0 -114 -57 -3 -58 -3 -3 -117 -3 -117
-57 -3 -57 -3 -3 -112 -3 -112 -52 -3 -52 -3 -3 -57 -3 -58 -59 0 -59 0 -3 58
-3 57 -57 3 -57 3 -3 52 -3 52 -55 0 -55 0 0 -230 0 -230 55 -5 55 -5 3 -56 3
-56 -92 -6 c-157 -12 -144 -17 -144 55 l0 63 -175 5 -175 5 -5 55 -5 55 -110
0 -110 0 0 -55 0 -55 55 -5 55 -5 3 -112 3 -113 -60 0 -60 0 -3 53 -3 52 -55
0 -55 0 0 -50 0 -50 58 -3 57 -3 0 -59 0 -60 -120 0 -120 0 0 115 0 115 -60 0
-60 0 0 -55 0 -55 -54 0 -55 0 -3 53 -3 52 -55 5 -55 5 -5 55 -5 55 -115 5
-115 5 -5 55 -5 55 -52 3 -52 3 -3 57 -3 57 -57 3 -57 3 -3 57 -3 57 -57 3
-58 3 0 54 0 55 60 0 59 0 3 58 3 57 112 3 112 3 3 -58 3 -58 177 -3 178 -2 2
177 3 178 50 0 50 0 3 -117 3 -117 57 -3 57 -3 3 -58 3 -58 57 3 57 3 3 118 3
117 60 0 60 0 -3 58 -3 57 -58 3 -58 3 3 52 3 52 118 3 118 3 -3 57 -3 57 -55
5 -55 5 -3 58 -3 57 61 0 60 0 0 60 0 60 -60 0 -60 0 0 -59 0 -59 -60 -4 -60
-3 0 63 0 62 -60 0 -60 0 0 55 0 56 -57 -3 -58 -3 -3 -52 -3 -53 -55 0 -54 0
0 -60 c0 -41 -4 -60 -12 -61 -7 0 -33 -1 -58 -2 l-45 -2 -3 -58 -3 -58 -57 3
-57 3 -3 58 -3 57 61 0 60 0 0 60 0 61 -57 -3 -58 -3 -3 -57 -3 -56 -50 -4
c-28 -1 -55 -1 -59 2 -5 3 -10 30 -12 60 l-3 55 -50 0 -50 0 -3 -57 -3 -58 56
0 55 0 0 -59 0 -60 -52 -3 -53 -3 -3 -57 -3 -58 -59 0 -60 0 0 -115 0 -114
-117 -3 -118 -3 0 -55 0 -55 55 -5 55 -5 3 -57 3 -57 -113 -3 -113 -3 -3 -52
-3 -53 -59 0 -59 0 -3 53 -3 52 -57 3 -57 3 -3 57 -3 57 -112 3 -113 3 0 -60
0 -60 53 -3 52 -3 3 -52 3 -53 120 0 119 0 0 -60 0 -59 -57 -3 -58 -3 0 -55 0
-55 58 -3 57 -3 0 61 0 60 115 0 115 0 0 -59 0 -60 -52 -3 -53 -3 -3 -57 -3
-58 55 0 55 0 3 -57 3 -58 58 -3 57 -3 0 -54 0 -54 -57 -3 -58 -3 -3 -57 -3
-58 61 0 60 0 0 -60 0 -60 60 0 59 0 3 -57 3 -58 55 0 55 0 0 55 0 55 -57 3
-57 3 -3 57 -3 57 -57 3 -58 3 0 59 0 60 355 0 355 0 0 -120 0 -121 -57 3 -58
3 -5 55 -5 55 -55 0 -55 0 0 -115 0 -115 118 -3 117 -3 0 60 0 60 53 3 52 3 3
58 3 57 59 0 59 0 3 -57 3 -58 115 0 115 0 3 58 3 57 59 0 60 0 0 -120 0 -119
-57 -3 -58 -3 0 -50 0 -50 58 -3 57 -3 0 -62 0 -62 -295 3 -295 3 0 60 0 60
-117 -3 -118 -3 0 -55 0 -55 118 -3 118 -3 -3 -57 -3 -57 -55 -5 -55 -5 -3
-57 -3 -58 -59 0 -60 0 0 60 0 61 -57 -3 -58 -3 0 -110 0 -110 118 -3 117 -3
0 -119 0 -119 -57 -3 -58 -3 -3 -57 -3 -58 -59 0 -59 0 -3 118 -3 117 -50 0
-50 0 -3 -117 -3 -118 -59 0 -60 0 0 60 0 60 -172 2 -173 3 -5 115 -5 115 -55
5 -55 5 -3 112 -3 112 -57 3 -57 3 -3 58 -3 58 -57 -3 -57 -3 -3 -172 -2 -173
59 0 60 0 3 -57 3 -58 58 -3 57 -3 0 -119 0 -119 -57 -3 -58 -3 -3 -52 -3 -52
-57 -3 -57 -3 -3 -118 -3 -118 58 3 58 3 3 118 3 117 59 0 59 0 3 -58 3 -57
57 -3 57 -3 3 -57 3 -57 52 -3 52 -3 3 -57 3 -57 117 -3 117 -3 3 -57 3 -57
112 -3 112 -3 3 -52 3 -52 118 -3 118 -3 -3 -57 -3 -57 -117 -3 -117 -3 -3
-57 -3 -57 -50 0 -50 0 -3 58 -3 58 -57 -3 -57 -3 0 -115 0 -115 112 -3 112
-3 3 -112 3 -112 58 -3 57 -3 0 -119 0 -120 -60 0 -60 0 0 -235 0 -235 59 0
60 0 3 -52 3 -53 55 0 55 0 3 113 3 112 59 0 60 0 0 -115 0 -115 55 0 55 0 0
55 0 54 58 3 57 3 3 58 3 57 119 0 120 0 0 -60 0 -60 -61 0 -60 0 3 -52 3 -53
58 -3 57 -3 0 55 0 55 58 3 57 3 3 58 3 57 54 0 54 0 3 -57 3 -58 57 -3 57 -3
3 -52 3 -52 58 -3 57 -3 0 176 0 175 60 0 60 0 0 60 0 60 -60 0 -60 0 0 55 0
55 -60 0 -60 0 0 120 0 120 60 0 59 0 3 -57 3 -58 55 0 55 0 3 117 3 118 -178
2 -178 3 -3 52 -3 52 58 3 58 3 3 57 3 57 57 3 57 3 3 57 3 57 57 3 57 3 3 58
3 57 54 0 55 0 0 -119 0 -120 -52 -3 -53 -3 0 -55 0 -55 50 0 50 0 3 58 3 57
59 0 60 0 0 -55 c0 -49 2 -55 24 -61 13 -3 38 -4 57 -2 34 3 34 3 37 61 l3 57
-61 0 -60 0 0 60 0 59 58 3 57 3 3 58 3 57 -121 0 -121 0 3 113 3 112 57 3 57
3 3 -58 3 -58 115 0 115 0 3 117 3 117 52 3 52 3 3 58 3 57 119 0 120 0 0 -60
0 -60 -60 0 -61 0 3 -57 3 -58 55 0 55 0 3 57 3 57 57 3 57 3 3 58 3 57 174 0
174 0 3 -57 3 -58 58 -3 57 -3 0 -119 0 -120 -119 0 -120 0 -3 -52 -3 -53 -55
0 -55 0 -3 112 -3 112 58 3 58 3 3 58 3 57 -61 0 -60 0 0 -59 0 -60 -52 -3
-53 -3 -5 -110 -5 -110 -58 -3 -58 -3 3 -57 3 -57 173 -3 173 -2 -3 -58 -3
-57 -113 -3 -113 -3 3 -57 3 -57 52 -3 52 -3 3 -112 3 -112 178 -3 178 -2 -3
-58 -3 -57 -178 -3 -178 -2 3 -58 3 -57 57 -3 57 -3 3 -52 3 -52 57 -3 57 -3
3 -57 3 -57 55 -5 55 -5 3 -57 3 -58 59 0 60 0 0 -60 0 -61 113 3 112 3 3 57
3 57 -58 3 -58 3 -5 55 -5 55 -50 5 -50 5 -3 58 -3 57 175 0 175 0 3 -118 3
-117 55 0 55 0 5 55 c5 53 6 55 35 58 17 1 40 5 53 7 l22 5 0 230 0 230 -55 0
-55 0 0 60 0 60 173 2 172 3 3 112 3 113 -120 0 -120 0 -3 58 -3 57 -50 0 -50
0 0 -55 0 -55 53 -3 53 -3 -3 -57 -3 -57 -50 0 -50 0 -3 58 -3 57 -59 0 -59 0
-3 -57 -3 -58 -58 -3 -58 -3 3 -52 3 -52 58 -3 58 -3 -3 -57 -3 -57 -170 0
-170 0 -3 57 -3 57 53 3 53 3 3 112 3 112 57 3 57 3 0 55 0 55 -57 3 -58 3 0
114 0 114 58 3 57 3 3 117 3 117 57 3 57 3 3 58 3 57 -121 0 -121 0 3 58 3 57
55 5 55 5 0 50 0 50 -112 3 -113 3 0 59 0 59 53 3 52 3 3 58 3 57 59 0 60 0 0
60 0 61 -57 -3 -58 -3 -3 -57 -3 -58 -54 0 -55 0 0 60 0 60 -60 0 -60 0 0 -60
0 -60 60 0 60 0 0 -60 0 -60 -120 0 -121 0 3 -57 3 -58 118 -3 117 -3 0 -54 0
-55 -60 0 -60 0 0 -60 0 -60 -60 0 -59 0 -3 58 -3 57 -117 3 -118 3 0 54 0 54
58 3 57 3 3 58 3 57 -61 0 -60 0 0 60 0 59 118 3 117 3 5 110 5 110 115 5 115
5 3 57 3 57 -118 3 -118 3 -3 118 -3 117 -59 0 -59 0 -3 53 -3 52 -57 3 -58 3
0 179 0 180 60 0 59 0 3 -117 3 -118 58 -3 57 -3 0 -59 0 -60 120 0 120 0 0
119 0 120 53 3 52 3 0 55 0 55 -52 3 -53 3 0 55 0 54 115 0 115 0 0 60 0 59
58 3 57 3 0 55 0 55 -55 0 -55 0 -3 -57 -3 -57 -112 -3 -112 -3 -3 -57 -3 -58
-59 0 -59 0 -3 58 -3 57 -55 5 -55 5 -3 58 -3 57 61 0 60 0 0 60 0 59 113 3
112 3 3 58 3 57 60 0 60 0 -3 53 -3 52 -55 1 -55 1 -5 179 -5 179 -112 3 -113
3 0 114 0 115 60 0 60 0 0 -60 0 -60 55 0 56 0 -3 58 -3 57 -53 3 -53 3 3 57
3 57 53 3 52 3 0 60 0 60 -52 -3 -53 -3 -3 -60 -3 -60 -59 3 -59 4 -3 111 -3
112 -57 3 -58 3 0 59 0 60 120 0 120 0 0 175 0 175 -60 0 -60 0 0 -115z
m-2240 -525 l0 -59 58 -3 57 -3 3 -57 3 -58 -61 0 -60 0 0 -60 0 -60 -60 0
-60 0 0 60 0 60 60 0 60 0 0 60 0 60 -60 0 -60 0 0 60 0 60 60 0 60 0 0 -60z
m1770 -120 l0 -60 115 0 115 0 0 -177 0 -178 117 0 118 0 3 -232 2 -232 -57
-3 -58 -3 -3 -57 -3 -58 -59 0 -59 0 -3 -117 -3 -118 -112 -3 -112 -3 -3 58
-3 58 -55 0 -55 0 -3 -57 -3 -58 -60 0 -60 0 3 118 3 117 233 3 233 2 -3 58
-3 57 -112 3 -112 3 -3 57 -3 57 -55 0 -55 0 -5 -55 -5 -55 -117 -3 -118 -3 0
60 0 60 58 3 57 3 5 50 5 50 55 5 55 5 5 115 5 115 55 0 55 0 3 -57 3 -57 52
-3 52 -3 3 -57 3 -57 57 -3 57 -3 3 -52 3 -53 60 0 60 0 -3 113 -3 112 -57 3
-57 3 -3 57 -3 57 -57 3 -57 3 -3 112 -3 112 -52 3 -53 3 0 60 0 59 -60 0 -60
0 0 60 0 60 60 0 60 0 0 -60z m-2002 -122 l3 -58 -60 0 -61 0 -2 -172 -3 -173
-117 -3 -117 -3 -3 58 -3 58 -53 3 -53 3 3 57 3 57 52 3 52 3 3 52 3 52 118 3
117 3 0 60 0 60 58 -3 57 -3 3 -57z m352 -228 l0 -61 -57 3 -58 3 -3 44 c-5
66 0 71 63 71 l55 0 0 -60z m2350 -355 l0 -55 -55 0 -55 0 0 48 c0 27 3 52 7
55 3 4 28 7 55 7 l48 0 0 -55z m-3410 -115 l0 -60 60 0 59 0 3 -57 3 -58 58
-3 57 -3 0 -59 0 -59 -57 -3 -58 -3 -3 -57 -3 -58 -59 0 -59 0 -3 58 -3 57
-57 3 -58 3 0 59 0 60 60 0 60 0 0 60 0 60 -60 0 -60 0 0 53 c0 30 3 57 7 60
3 4 30 7 60 7 l53 0 0 -60z m2120 -120 l0 -60 60 0 60 0 0 61 0 60 53 -3 52
-3 0 -55 0 -55 -53 -3 -53 -3 3 -125 3 -124 -65 0 -65 0 3 125 3 125 -60 0
-61 0 0 60 0 60 60 0 60 0 0 -60z m-392 -307 c-10 -2 -28 -2 -40 0 -13 2 -5 4
17 4 22 1 32 -1 23 -4z m325 0 c-7 -2 -19 -2 -25 0 -7 3 -2 5 12 5 14 0 19 -2
13 -5z m574 1 c-3 -3 -12 -4 -19 -1 -8 3 -5 6 6 6 11 1 17 -2 13 -5z m551
-166 l-3 -173 -57 -3 -58 -3 0 169 c0 93 3 172 7 175 3 4 30 7 60 7 l53 0 -2
-172z m-943 10 c208 -60 375 -232 431 -443 20 -78 20 -233 0 -308 -58 -214
-220 -382 -430 -446 -83 -26 -251 -29 -336 -6 -216 57 -389 235 -446 457 -25
95 -15 282 19 363 45 107 79 159 153 231 162 159 389 216 609 152z m705 -478
l0 -60 -60 0 -60 0 0 60 0 60 60 0 60 0 0 -60z m-1880 -240 l5 -55 57 -3 57
-3 3 58 3 58 58 3 57 3 0 -61 0 -60 -60 0 -60 0 0 -55 0 -55 60 0 61 0 -3 -57
-3 -58 -175 -5 -175 -5 0 -115 0 -115 58 -3 57 -3 0 61 0 60 60 0 60 0 0 -60
0 -60 60 0 60 0 0 -115 0 -115 55 0 56 0 -3 -57 -3 -58 -50 0 -50 0 -3 58 -3
58 -57 -3 -57 -3 -3 -117 -3 -118 60 0 60 0 3 -57 3 -58 50 0 50 0 5 55 5 55
58 3 57 3 0 59 0 59 58 3 57 3 3 123 3 122 72 0 c42 0 67 -4 59 -9 -9 -5 -12
-25 -10 -62 l3 -54 53 -3 54 -3 -4 65 -3 66 62 0 62 0 3 -62 3 -63 55 0 55 0
5 55 5 55 55 0 55 0 0 -55 0 -55 -57 -3 -58 -3 0 -119 0 -120 -60 0 -60 0 0
120 0 120 -60 0 -59 0 -3 -57 -3 -58 -50 -5 -50 -5 -5 -55 -5 -55 -117 -3
-117 -3 -3 -112 -3 -112 -55 -5 -55 -5 -5 -115 -5 -115 -113 -3 -113 -3 3 -57
3 -57 58 -3 58 -3 -3 -52 -3 -52 -57 -3 -58 -3 0 -59 0 -60 60 0 60 0 0 -60 0
-60 55 0 54 0 3 -112 3 -113 118 -3 117 -3 0 -59 0 -59 -57 -3 -58 -3 -5 -55
-5 -55 -57 -3 -58 -3 0 61 0 60 -55 0 -55 0 0 -60 0 -60 -60 0 -60 0 0 175 0
175 -60 0 -59 0 -3 -112 -3 -113 -57 -3 -58 -3 0 -59 0 -60 -115 0 -116 0 3
57 3 58 113 3 112 3 0 59 0 60 -175 0 -175 0 0 -120 0 -121 -57 3 -58 3 -3
173 -2 172 59 0 60 0 3 58 3 57 113 3 112 3 0 354 0 354 -52 3 -53 3 -3 52 -3
52 53 3 53 3 3 58 3 57 59 0 60 0 2 -172 3 -173 115 0 115 0 3 172 2 172 -57
3 -58 3 -3 57 -3 57 -57 3 -57 3 -3 58 -3 57 -59 0 -60 0 0 -60 0 -60 -55 0
-54 0 -3 -57 -3 -58 -57 -3 -57 -3 -3 -57 -3 -57 -55 0 -55 0 -3 58 -3 57
-174 0 -175 0 0 60 0 60 -120 0 -120 0 0 60 0 60 -55 0 -55 0 0 60 0 60 -60 0
-60 0 0 55 0 55 60 0 60 0 0 -55 0 -55 54 0 55 0 3 53 3 52 118 3 117 3 0 -56
0 -55 60 0 60 0 0 55 0 55 54 0 55 0 3 -52 3 -53 58 -3 57 -3 0 56 0 55 60 0
60 0 0 60 0 60 60 0 60 0 0 -60 0 -60 -60 0 -60 0 0 -55 0 -55 115 0 115 0 0
174 0 175 -52 3 -53 3 -3 58 -3 57 -59 0 -60 0 0 55 0 55 60 0 60 0 0 -55 0
-56 113 3 112 3 3 53 3 52 -60 0 -61 0 0 60 0 61 118 -3 117 -3 5 -55z m1878
-2 l3 -58 -56 0 c-30 0 -58 -1 -62 -2 -10 -4 -16 89 -9 109 4 10 21 13 63 11
l58 -3 3 -57z m-1441 -634 c-3 -3 -12 -4 -19 -1 -8 3 -5 6 6 6 11 1 17 -2 13
-5z m330 0 c-3 -3 -12 -4 -19 -1 -8 3 -5 6 6 6 11 1 17 -2 13 -5z m700 0 c-3
-3 -12 -4 -19 -1 -8 3 -5 6 6 6 11 1 17 -2 13 -5z m181 -61 l3 -63 -61 0 -60
0 0 59 c0 38 -5 61 -12 65 -7 3 19 4 57 3 l70 -2 3 -62z m700 -120 l-3 -58
-112 -3 -113 -3 0 61 0 60 115 0 116 0 -3 -57z m2 -243 l0 -60 -55 0 -55 0 0
-115 0 -115 55 0 55 0 0 -60 0 -60 -115 0 -114 0 -3 -112 -3 -113 -115 0 -115
0 -3 52 -3 52 58 3 58 3 3 58 3 57 60 0 60 0 -3 58 -3 57 -57 3 -58 3 0 59 0
59 58 3 57 3 3 53 3 52 60 0 59 0 0 60 0 60 55 0 55 0 0 -60z m-2700 -585 l0
-175 -120 0 -120 0 0 168 c0 93 3 172 7 175 3 4 57 7 120 7 l113 0 0 -175z
m2938 -352 l-3 -58 -170 0 -170 0 -3 58 -3 57 176 0 176 0 -3 -57z m-470 -115
l-3 -53 -57 -3 -58 -3 0 56 0 55 61 0 60 0 -3 -52z"/>
<path d="M6057 4573 c-4 -3 -7 -28 -7 -55 l0 -48 55 0 55 0 0 55 0 55 -48 0
c-27 0 -52 -3 -55 -7z"/>
<path d="M5253 3669 c-18 -5 -33 -14 -33 -20 0 -5 43 -51 95 -101 52 -50 95
-95 95 -100 0 -4 -67 -8 -148 -8 -151 0 -172 -5 -172 -40 0 -28 25 -51 60 -59
l35 -7 3 -109 c3 -136 5 -146 42 -189 43 -49 100 -69 171 -61 l56 7 5 -67 c3
-37 10 -71 16 -77 5 -5 28 -12 51 -15 37 -5 41 -3 51 22 6 17 10 116 10 249 0
122 -1 226 0 233 0 7 18 13 43 15 39 3 42 5 45 35 4 40 -27 63 -84 63 -41 0
-44 3 -130 103 -48 56 -97 110 -108 119 -23 19 -54 21 -103 7z m207 -453 c0
-137 0 -136 -66 -136 -24 0 -43 8 -59 25 -23 22 -25 31 -25 123 0 54 3 102 7
105 3 4 37 7 75 7 l68 0 0 -124z"/>
<path d="M4400 2525 l0 -54 -57 -3 -58 -3 -3 -58 -3 -58 58 3 58 3 3 57 3 57
57 3 57 3 3 53 3 52 -60 0 -61 0 0 -55z"/>
<path d="M3220 2410 l0 -60 120 0 120 0 0 60 0 60 -120 0 -120 0 0 -60z"/>
<path d="M3810 2410 l0 -59 -112 -3 -113 -3 0 -55 0 -55 113 -3 112 -3 0 -59
0 -60 60 0 60 0 0 60 0 60 60 0 60 0 0 60 0 60 -60 0 -60 0 0 60 0 60 -60 0
-60 0 0 -60z m120 -120 l0 -60 -60 0 -60 0 0 60 0 60 60 0 60 0 0 -60z"/>
<path d="M4407 1283 c-4 -3 -7 -30 -7 -60 l0 -53 -120 0 -121 0 3 -57 3 -58
115 0 115 0 3 58 3 57 59 0 60 0 0 -60 0 -61 58 3 57 3 3 58 3 57 -61 0 -60 0
0 60 0 60 -53 0 c-30 0 -57 -3 -60 -7z"/>
<path d="M6757 5874 c-4 -4 -7 -32 -7 -61 l0 -54 58 3 57 3 0 55 0 55 -50 3
c-28 2 -54 0 -58 -4z"/>
<path d="M5225 5507 c-3 -7 -4 -85 -3 -172 l3 -160 175 0 175 0 0 170 0 170
-173 3 c-135 2 -174 0 -177 -11z m233 -159 l3 -58 -61 0 -60 0 0 53 c0 30 3
57 7 61 4 4 30 6 58 4 l50 -3 3 -57z"/>
<path d="M6990 5230 l0 -59 -57 -3 -58 -3 -3 -57 -3 -58 61 0 60 0 0 60 0 59
58 3 57 3 3 58 3 57 -61 0 -60 0 0 -60z"/>
<path d="M4757 5044 c-4 -4 -7 -29 -7 -55 l0 -48 -52 -3 -53 -3 0 -55 0 -55
50 -5 50 -5 3 -117 3 -118 -46 0 c-25 0 -48 0 -52 0 -5 0 -10 26 -13 57 l-5
58 -55 0 -55 0 -3 -57 -3 -58 61 0 60 0 0 -55 0 -54 -117 -3 -118 -3 0 -55 0
-55 118 -3 117 -3 0 61 0 60 55 0 55 0 0 55 0 55 60 0 59 0 3 58 3 57 118 3
117 3 0 53 c0 40 -4 55 -16 60 -9 3 -63 6 -120 6 l-105 0 3 58 3 57 58 3 58 3
-3 52 -3 52 -111 3 c-60 1 -113 -1 -117 -4z"/>
<path d="M5347 5044 c-4 -4 -7 -29 -7 -55 l0 -48 -57 -3 -58 -3 -3 -117 -3
-117 -52 -3 -52 -3 0 -55 0 -55 53 -3 52 -3 0 60 0 61 60 0 60 0 0 -60 0 -60
60 0 60 0 0 60 0 59 58 3 57 3 3 57 3 57 52 3 52 3 0 55 0 55 -52 3 -52 3 -3
52 -3 52 -111 3 c-60 1 -113 -1 -117 -4z m233 -164 l0 -60 -44 0 c-24 0 -51
-3 -60 -6 -14 -5 -16 3 -16 53 0 33 3 63 7 66 3 4 30 7 60 7 l53 0 0 -60z
m-122 -122 l3 -58 -61 0 -60 0 0 53 c0 30 3 57 7 61 4 4 30 6 58 4 l50 -3 3
-57z"/>
<path d="M7338 4998 l-3 -53 -55 -5 -55 -5 -3 -118 -3 -118 58 3 58 3 5 55 5
55 55 5 55 5 0 110 0 110 -57 3 -57 3 -3 -53z"/>
<path d="M2997 4933 c-8 -7 -9 -85 -2 -105 4 -9 21 -12 60 -10 l55 4 0 59 0
59 -53 0 c-30 0 -57 -3 -60 -7z"/>
<path d="M6997 4934 c-4 -4 -7 -58 -7 -120 l0 -113 -57 -3 -58 -3 -3 -57 -3
-58 61 0 60 0 0 60 0 60 60 0 61 0 -3 118 -3 117 -50 3 c-28 2 -54 0 -58 -4z"/>
<path d="M7930 4700 l0 -121 113 3 112 3 3 58 3 57 -56 0 -55 0 0 54 c0 61 -6
66 -76 66 l-44 0 0 -120z"/>
<path d="M2997 4694 c-4 -4 -7 -31 -7 -61 l0 -53 60 0 61 0 -3 58 -3 57 -50 3
c-28 2 -54 0 -58 -4z"/>
<path d="M4057 4574 c-4 -4 -7 -29 -7 -55 l0 -48 -117 -3 -118 -3 0 -55 0 -55
55 -5 55 -5 5 -55 5 -55 57 -3 57 -3 3 58 3 58 52 3 52 3 3 57 3 57 58 3 58 3
-3 52 -3 52 -106 3 c-58 1 -108 -1 -112 -4z"/>
<path d="M4997 4464 c-4 -4 -7 -58 -7 -121 l0 -113 60 0 61 0 -3 118 -3 117
-50 3 c-28 2 -54 0 -58 -4z"/>
<path d="M4164 4216 c-3 -7 -4 -33 -2 -57 l3 -44 115 0 115 0 0 55 0 55 -113
3 c-90 2 -113 0 -118 -12z"/>
<path d="M7587 3983 c-4 -3 -7 -28 -7 -55 l0 -49 53 3 52 3 3 53 3 52 -49 0
c-27 0 -52 -3 -55 -7z"/>
<path d="M4284 3507 c-3 -8 -4 -32 -2 -53 l3 -39 55 0 55 0 0 50 0 50 -53 3
c-38 2 -54 -1 -58 -11z"/>
<path d="M6874 3506 c-3 -8 -4 -31 -2 -52 l3 -39 58 -3 57 -3 0 56 0 55 -55 0
c-38 0 -57 -4 -61 -14z"/>
<path d="M3114 3397 c-2 -7 -3 -87 -2 -177 l3 -165 173 -3 172 -2 0 180 0 180
-170 0 c-130 0 -172 -3 -176 -13z m226 -167 l0 -61 -57 3 -58 3 -3 44 c-5 66
0 71 63 71 l55 0 0 -60z"/>
<path d="M3582 3353 l3 -58 53 -3 53 -3 -3 58 -3 58 -53 3 -53 3 3 -58z"/>
<path d="M7340 3230 l0 -180 175 0 175 0 -2 178 -3 177 -172 3 -173 2 0 -180z
m235 0 l0 -55 -57 -3 -58 -3 0 61 0 61 58 -3 57 -3 0 -55z"/>
<path d="M7810 3291 l0 -120 58 -3 57 -3 3 -57 3 -58 59 0 60 0 0 -56 0 -55
53 3 52 3 0 50 0 50 -52 3 -52 3 -3 117 -3 117 -57 3 -57 3 -3 57 -3 57 -57 3
-58 3 0 -120z"/>
<path d="M3224 2926 c-3 -7 -4 -33 -2 -57 l3 -44 55 0 55 0 3 58 3 57 -56 0
c-38 0 -57 -4 -61 -14z"/>
<path d="M3464 2927 c-3 -8 -4 -34 -2 -58 l3 -44 58 -3 58 -3 -3 58 -3 58 -53
3 c-38 2 -54 -1 -58 -11z"/>
<path d="M7340 2881 l0 -60 118 -3 117 -3 5 -55 5 -55 110 0 110 0 0 55 0 55
-55 5 -55 5 -5 55 -5 55 -172 3 -173 2 0 -59z"/>
<path d="M2752 2763 l3 -58 55 0 55 0 3 58 3 57 -61 0 -61 0 3 -57z"/>
<path d="M7587 2574 c-4 -4 -7 -29 -7 -56 l0 -49 53 3 52 3 0 50 0 50 -45 3
c-25 2 -49 0 -53 -4z"/>
<path d="M7810 2525 l0 -55 61 0 60 0 -3 53 -3 52 -57 3 -58 3 0 -56z"/>
<path d="M7112 2293 l3 -58 50 0 50 0 0 55 0 55 -53 3 -53 3 3 -58z"/>
<path d="M3220 1935 l0 -56 58 3 57 3 3 53 3 52 -60 0 -61 0 0 -55z"/>
<path d="M5582 1938 l3 -53 50 0 50 0 0 50 0 50 -53 3 -53 3 3 -53z"/>
<path d="M6872 1938 l3 -53 115 0 115 0 3 53 3 52 -121 0 -121 0 3 -52z"/>
<path d="M3582 1823 l3 -58 50 0 50 0 3 58 3 57 -56 0 -56 0 3 -57z"/>
<path d="M5812 1583 l3 -58 55 0 55 0 3 58 3 57 -61 0 -61 0 3 -57z"/>
<path d="M5462 1468 l3 -53 55 0 55 0 3 53 3 52 -61 0 -61 0 3 -52z"/>
<path d="M7582 1468 l3 -53 110 0 110 0 3 53 3 52 -116 0 -116 0 3 -52z"/>
<path d="M5932 1353 l3 -58 55 0 55 0 3 58 3 57 -61 0 -61 0 3 -57z"/>
<path d="M5225 1277 c-3 -7 -4 -85 -3 -172 l3 -160 175 0 175 0 0 170 0 170
-173 3 c-135 2 -174 0 -177 -11z m235 -167 l0 -60 -60 0 -60 0 0 60 0 60 60 0
60 0 0 -60z"/>
<path d="M5694 1276 c-3 -7 -4 -33 -2 -57 l3 -44 58 -3 57 -3 0 -59 0 -60 -60
0 -60 0 0 -114 0 -115 -52 -3 -53 -3 0 -55 0 -55 50 0 50 0 3 58 3 57 59 0 59
0 3 -117 3 -118 115 0 115 0 3 58 3 57 114 0 115 0 0 60 0 59 -57 3 -58 3 -3
113 -3 112 -54 0 -55 0 0 -175 0 -176 -57 3 -58 3 -3 117 -3 117 -57 3 -57 3
-3 52 -3 52 58 3 58 3 3 58 3 57 -61 0 -60 0 0 60 0 60 -55 0 c-38 0 -57 -4
-61 -14z"/>
<path d="M7342 1118 l3 -173 170 0 170 0 3 173 2 172 -175 0 -175 0 2 -172z
m236 -5 l-3 -58 -57 -3 -58 -3 0 61 0 60 60 0 61 0 -3 -57z"/>
<path d="M5114 807 c-3 -8 -4 -34 -2 -58 l3 -44 50 0 50 0 0 55 0 55 -48 3
c-34 2 -49 -1 -53 -11z"/>
<path d="M7220 760 l0 -60 -55 0 -56 0 3 -57 c3 -56 4 -58 32 -61 15 -2 39 -1
52 2 22 6 24 12 24 61 l0 54 58 3 57 3 0 55 0 55 -57 3 -58 3 0 -61z"/>
<path d="M7810 760 l0 -60 48 0 c66 0 74 8 70 66 l-3 49 -57 3 -58 3 0 -61z"/>
<path d="M8052 648 l3 -173 50 0 50 0 3 173 2 172 -55 0 -55 0 2 -172z"/>
<path d="M6990 525 l0 -55 60 0 60 0 0 55 0 55 -60 0 -60 0 0 -55z"/>
<path d="M7587 5983 c-4 -3 -7 -134 -7 -290 l0 -283 290 0 290 0 -2 288 -3
287 -281 3 c-154 1 -283 -1 -287 -5z m461 -285 l2 -178 -180 0 -180 0 0 173
c0 96 3 177 7 181 4 3 84 5 177 4 l171 -3 3 -177z"/>
<path d="M2645 1037 c-3 -7 -4 -136 -3 -287 l3 -275 285 0 285 0 3 288 2 287
-285 0 c-221 0 -287 -3 -290 -13z m463 -274 l-3 -178 -175 0 -175 0 -3 165
c-1 90 0 170 2 177 4 10 47 13 181 13 l175 0 -2 -177z"/>
</g>
</svg>
